<svg width="202" height="38" viewBox="0 0 202 38" fill="none" xmlns="http://www.w3.org/2000/svg">
<g clip-path="url(#clip0_1_53)">
<path d="M19.5868 0.5C20.2911 0.597145 20.9954 0.670003 21.6876 0.791434C25.9498 1.54431 29.5199 3.5722 32.3856 6.81441C34.9964 9.76518 36.5143 13.2381 36.9029 17.1603C37.3643 21.9326 36.1621 26.2798 33.2721 30.117C30.5156 33.7721 26.8848 36.14 22.3919 37.075C16.8546 38.2286 11.7788 37.0871 7.26157 33.6628C3.63079 30.9063 1.37217 27.2391 0.400725 22.7947C0.230722 22.0297 0.182149 21.2525 0.0728615 20.4754C0.0607184 20.3418 0.0242891 20.2204 0.012146 20.0868C0.012146 19.3582 0.012146 18.6418 0.012146 17.9132C0.0364322 17.6582 0.0728615 17.391 0.0971476 17.136C0.534299 13.1531 2.05219 9.64375 4.73581 6.66869C7.58944 3.51149 11.1109 1.53216 15.3124 0.791434C16.0046 0.670003 16.7089 0.597145 17.4132 0.5C18.1418 0.5 18.8582 0.5 19.5868 0.5ZM18.5061 1.87217C9.08303 1.86003 1.38432 9.5466 1.37217 18.9818C1.36003 28.4048 9.04661 36.1035 18.4818 36.1157C27.9048 36.1278 35.6035 28.4412 35.6157 19.0061C35.6278 9.58303 27.9413 1.88431 18.5061 1.87217Z" fill="#FEBF00"/>
<path d="M24.5655 9.8987C24.1769 9.8987 23.8491 9.8987 23.4969 9.8987C23.4969 13.3838 23.4969 16.8567 23.4969 20.3539C23.169 20.3539 22.8655 20.3539 22.5497 20.3539C22.5497 16.8688 22.5497 13.4081 22.5497 9.91084C22.2097 9.91084 21.9062 9.91084 21.554 9.91084C21.469 10.6516 21.3597 11.3923 21.2869 12.1452C21.0683 14.6588 20.8497 17.1846 20.6676 19.6982C20.619 20.3782 20.6797 21.0703 20.7526 21.7504C20.7768 22.0054 20.8983 22.2847 21.0561 22.5032C21.7119 23.414 22.574 24.0333 23.6548 24.3368C23.8976 24.4097 23.9341 24.519 23.9219 24.7497C23.7762 27.409 23.6426 30.0684 23.509 32.7156C23.4969 32.9706 23.4726 33.2256 23.4848 33.4684C23.4848 33.6749 23.424 33.7842 23.2055 33.8449C20.5218 34.6706 17.8261 34.8163 15.0817 34.1849C14.8632 34.1363 14.766 34.0634 14.7539 33.8206C14.596 30.5541 14.426 27.2755 14.256 24.009C14.2439 23.8875 14.256 23.7661 14.256 23.6325C14.4382 23.5597 14.6082 23.4868 14.7903 23.4261C16.211 23.0132 17.1461 22.0418 17.7775 20.7668C18.7004 18.8724 19.004 16.8688 18.4939 14.8045C18.0811 13.1166 17.1703 11.7445 15.7496 10.7366C13.9889 9.48584 12.0095 9.60727 10.3216 11.1009C8.62161 12.5945 7.78373 14.4888 7.82016 16.7474C7.84445 18.3017 8.16017 19.771 8.96161 21.1311C9.65377 22.3089 10.6009 23.1347 11.9245 23.499C12.2281 23.584 12.301 23.7175 12.2767 24.0333C12.131 26.6319 11.9974 29.2305 11.8638 31.8291C11.8395 32.2177 11.8152 32.6184 11.791 33.0191C6.80014 30.797 2.23434 24.8954 2.98721 17.4153C3.74008 9.93513 9.73877 4.17931 16.9639 3.48715C24.8205 2.72214 31.6813 7.83438 33.5757 14.9988C35.4943 22.2361 32.0092 29.2305 26.3384 32.4606C26.3141 32.0113 26.2777 31.5984 26.2534 31.1734C26.1441 29.0484 26.047 26.9112 25.9255 24.7861C25.9134 24.5433 25.9619 24.434 26.217 24.3611C27.2248 24.0818 28.0263 23.4868 28.6941 22.6975C29.0706 22.2482 29.192 21.7261 29.1799 21.1918C29.1556 19.6739 29.1434 18.156 29.022 16.6503C28.8399 14.4645 28.5727 12.2909 28.3299 10.1173C28.3177 10.0566 28.3177 10.008 28.3056 9.93513C28.0627 9.93513 27.8441 9.93513 27.577 9.93513C27.577 13.4081 27.577 16.881 27.577 20.3782C27.237 20.3782 26.9455 20.3782 26.6055 20.3782C26.6055 16.9053 26.6055 13.4323 26.6055 9.93513C26.2291 9.93513 25.9012 9.93513 25.5248 9.93513C25.5248 13.3959 25.5248 16.8688 25.5248 20.3782C25.1969 20.3782 24.9055 20.3782 24.5655 20.3782C24.5655 16.881 24.5655 13.4081 24.5655 9.8987Z" fill="#FEBF00"/>
<path d="M8.80377 17.816C8.88877 16.5531 9.10735 15.4845 9.72665 14.5495C9.79951 14.4402 9.95737 14.3795 10.0667 14.3066C10.0909 14.4402 10.1638 14.5981 10.1274 14.7195C9.42307 17.391 9.98165 19.771 11.6574 21.9325C11.7303 22.0175 11.7303 22.1511 11.7667 22.2604C11.6453 22.2482 11.4874 22.2968 11.4024 22.2239C10.9652 21.9082 10.4917 21.6168 10.1517 21.2161C9.2895 20.2082 8.88877 18.9939 8.80377 17.816Z" fill="#FEBF00"/>
</g>
<path d="M55.2759 28.5L50.5825 20.6778H48.819V28.5H44.8083V8.41822H52.4599C54.7923 8.41822 56.5653 8.98711 57.779 10.1249C59.0116 11.2627 59.6279 12.7607 59.6279 14.6191C59.6279 16.1361 59.2012 17.4067 58.3479 18.4307C57.5135 19.4547 56.2999 20.1373 54.707 20.4787L59.7132 28.5H55.2759ZM48.819 17.9187H52.1185C54.413 17.9187 55.5603 16.9041 55.5603 14.8751C55.5603 13.908 55.2759 13.159 54.707 12.628C54.157 12.0781 53.2942 11.8031 52.1185 11.8031H48.819V17.9187ZM77.1556 20.0236C77.1556 20.4218 77.1082 20.8769 77.0134 21.3889H65.465C65.5219 22.7921 65.9011 23.8256 66.6027 24.4893C67.3044 25.153 68.1767 25.4849 69.2196 25.4849C70.1488 25.4849 70.9168 25.2573 71.5236 24.8022C72.1494 24.3471 72.5476 23.7308 72.7183 22.9533H76.9565C76.7479 24.0532 76.3023 25.0393 75.6196 25.9116C74.937 26.7839 74.0552 27.4665 72.9743 27.9596C71.9124 28.4526 70.7272 28.6991 69.4187 28.6991C67.8827 28.6991 66.5174 28.3767 65.3227 27.732C64.1281 27.0683 63.1989 26.1296 62.5352 24.916C61.8715 23.7024 61.5396 22.2707 61.5396 20.6209C61.5396 18.9711 61.8715 17.5394 62.5352 16.3258C63.1989 15.0932 64.1281 14.1545 65.3227 13.5098C66.5174 12.865 67.8827 12.5427 69.4187 12.5427C70.9737 12.5427 72.3296 12.865 73.4863 13.5098C74.662 14.1545 75.5627 15.0458 76.1885 16.1836C76.8333 17.3024 77.1556 18.5824 77.1556 20.0236ZM73.1165 19.6253C73.1734 18.3359 72.8321 17.3593 72.0925 16.6956C71.3719 16.0319 70.4807 15.7 69.4187 15.7C68.3379 15.7 67.4276 16.0319 66.6881 16.6956C65.9485 17.3593 65.5408 18.3359 65.465 19.6253H73.1165ZM85.4356 12.5427C87.3509 12.5427 88.8869 13.0262 90.0436 13.9933C91.2004 14.9604 91.921 16.2499 92.2054 17.8618H88.4507C88.299 17.1033 87.9577 16.4964 87.4267 16.0413C86.8958 15.5862 86.2036 15.3587 85.3503 15.3587C84.6676 15.3587 84.1367 15.5199 83.7574 15.8422C83.3781 16.1646 83.1885 16.6007 83.1885 17.1507C83.1885 17.5868 83.3402 17.9376 83.6436 18.2031C83.947 18.4686 84.3263 18.6772 84.7814 18.8289C85.2365 18.9806 85.8907 19.1607 86.7441 19.3693C87.9387 19.6348 88.9059 19.9193 89.6454 20.2227C90.4039 20.5071 91.0487 20.9717 91.5796 21.6164C92.1296 22.2422 92.4045 23.0956 92.4045 24.1764C92.4045 25.5228 91.8736 26.6132 90.8116 27.4476C89.7687 28.2819 88.3559 28.6991 86.5734 28.6991C84.5254 28.6991 82.8851 28.244 81.6525 27.3338C80.4199 26.4046 79.6709 25.0867 79.4054 23.38H83.2454C83.3402 24.1575 83.6816 24.7738 84.2694 25.2289C84.8573 25.665 85.6253 25.8831 86.5734 25.8831C87.2561 25.8831 87.7776 25.7219 88.1379 25.3996C88.4981 25.0582 88.6783 24.6221 88.6783 24.0911C88.6783 23.636 88.5171 23.2662 88.1947 22.9818C87.8913 22.6973 87.5026 22.4793 87.0285 22.3276C86.5734 22.1759 85.9192 21.9957 85.0659 21.7871C83.8901 21.5216 82.9325 21.2561 82.193 20.9907C81.4724 20.7062 80.8466 20.2606 80.3156 19.6538C79.8036 19.047 79.5476 18.2126 79.5476 17.1507C79.5476 15.7853 80.0691 14.676 81.1121 13.8227C82.155 12.9693 83.5962 12.5427 85.4356 12.5427ZM103.811 25.0582V28.5H101.706C99.9427 28.5 98.5869 28.0733 97.6387 27.22C96.7096 26.3667 96.245 24.9444 96.245 22.9533V16.1267H94.0547V12.7418H96.245V8.84489H100.256V12.7418H103.783V16.1267H100.256V23.0102C100.256 23.7687 100.407 24.2997 100.711 24.6031C101.014 24.9065 101.526 25.0582 102.247 25.0582H103.811ZM112.87 12.5427C114.197 12.5427 115.335 12.8556 116.283 13.4813C117.231 14.1071 117.904 14.951 118.303 16.0129V12.7418H122.285V28.5H118.303V25.2004C117.904 26.2624 117.231 27.1157 116.283 27.7604C115.335 28.3862 114.197 28.6991 112.87 28.6991C111.542 28.6991 110.348 28.3767 109.286 27.732C108.224 27.0873 107.389 26.1581 106.783 24.9444C106.195 23.7119 105.901 22.2707 105.901 20.6209C105.901 18.9711 106.195 17.5394 106.783 16.3258C107.389 15.0932 108.224 14.1545 109.286 13.5098C110.348 12.865 111.542 12.5427 112.87 12.5427ZM114.121 16.0413C112.87 16.0413 111.865 16.449 111.106 17.2644C110.348 18.0799 109.968 19.1987 109.968 20.6209C109.968 22.0431 110.348 23.1619 111.106 23.9773C111.865 24.7738 112.87 25.172 114.121 25.172C115.335 25.172 116.33 24.7643 117.108 23.9489C117.904 23.1145 118.303 22.0052 118.303 20.6209C118.303 19.2176 117.904 18.1083 117.108 17.2929C116.33 16.4585 115.335 16.0413 114.121 16.0413ZM140.995 12.7418V28.5H136.984V25.3142C136.567 26.3761 135.875 27.2105 134.908 27.8173C133.96 28.4052 132.86 28.6991 131.608 28.6991C129.788 28.6991 128.337 28.1018 127.256 26.9071C126.175 25.7124 125.635 24.0437 125.635 21.9009V12.7418H129.617V21.4458C129.617 22.6973 129.94 23.6739 130.584 24.3756C131.229 25.0582 132.101 25.3996 133.201 25.3996C134.358 25.3996 135.278 25.0298 135.96 24.2902C136.643 23.5507 136.984 22.4887 136.984 21.1044V12.7418H140.995ZM147.486 16.0413C147.998 14.9604 148.747 14.1261 149.733 13.5382C150.719 12.9314 151.895 12.628 153.26 12.628V15.444H152.464C151.004 15.444 149.809 15.8233 148.88 16.5818C147.951 17.3213 147.486 18.5539 147.486 20.2796V28.5H144.898V12.884H147.486V16.0413ZM162.214 12.6849C163.731 12.6849 165.011 13.0641 166.054 13.8227C167.116 14.5812 167.856 15.5957 168.273 16.8662V12.884H170.861V28.5H168.273V24.5178C167.856 25.7883 167.116 26.8028 166.054 27.5613C165.011 28.3199 163.731 28.6991 162.214 28.6991C160.83 28.6991 159.597 28.3767 158.517 27.732C157.436 27.0873 156.582 26.1676 155.957 24.9729C155.35 23.7593 155.046 22.337 155.046 20.7062C155.046 19.0754 155.35 17.6532 155.957 16.4396C156.582 15.2259 157.436 14.2967 158.517 13.652C159.597 13.0073 160.83 12.6849 162.214 12.6849ZM162.954 14.9889C161.361 14.9889 160.081 15.5009 159.114 16.5249C158.166 17.5299 157.692 18.9237 157.692 20.7062C157.692 22.4887 158.166 23.892 159.114 24.916C160.081 25.921 161.361 26.4236 162.954 26.4236C163.978 26.4236 164.888 26.1865 165.685 25.7124C166.5 25.2384 167.135 24.5747 167.59 23.7213C168.045 22.849 168.273 21.844 168.273 20.7062C168.273 19.5684 168.045 18.5634 167.59 17.6911C167.135 16.8188 166.5 16.1551 165.685 15.7C164.888 15.2259 163.978 14.9889 162.954 14.9889ZM183.201 12.628C185.022 12.628 186.491 13.2159 187.61 14.3916C188.729 15.5483 189.289 17.2265 189.289 19.4262V28.5H186.7V19.6538C186.7 18.0988 186.302 16.9041 185.505 16.0698C184.709 15.2354 183.628 14.8182 182.263 14.8182C180.841 14.8182 179.703 15.2828 178.849 16.212C177.996 17.1222 177.569 18.4591 177.569 20.2227V28.5H174.981V12.884H177.569V16.5818C177.968 15.3113 178.669 14.3347 179.674 13.652C180.698 12.9693 181.874 12.628 183.201 12.628ZM200.711 26.2244V28.5H198.777C197.184 28.5 195.989 28.1207 195.193 27.3622C194.415 26.6037 194.027 25.3332 194.027 23.5507V15.1311H191.694V12.884H194.027V8.98711H196.644V12.884H200.683V15.1311H196.644V23.6076C196.644 24.6126 196.824 25.3047 197.184 25.684C197.563 26.0443 198.208 26.2244 199.118 26.2244H200.711Z" fill="white"/>
<defs>
<clipPath id="clip0_1_53">
<rect width="36.9879" height="37" fill="white" transform="translate(0 0.5)"/>
</clipPath>
</defs>
</svg>
